<svg xmlns="http://www.w3.org/2000/svg" data-name="Layer 1" viewBox="0 0 91 91" x="0px" y="0px" style="max-width:100%" height="100%"><title style="" fill="currentColor">MerryXmax&amp;amp;HappyMan-12</title><path d="M72.67,49.7H69.55a.76.76,0,0,0,0-.21,29.25,29.25,0,0,0-9-12,63.28,63.28,0,0,1,16.67-10,1.68,1.68,0,0,0-.15-3.2,44.8,44.8,0,0,1-20.73-13.9,1.68,1.68,0,0,0-3,1.07v4.49c-6.5-1.47-13.19-9-13.26-9.13a1.68,1.68,0,0,0-2.95,1.1v7.25c-6.56-1-12.86-9.68-12.93-9.77a1.67,1.67,0,0,0-3,1v15.2l-16.5-1.6a1.68,1.68,0,0,0-1.84,1.68v8.53A1.67,1.67,0,0,0,4.5,31.82h.16l16.5-1.6V42a26.38,26.38,0,0,0-4.89,7.67.13.13,0,0,0,0,.06H9.61c-2.53,0-4.38.64-5.66,1.95-2.18,2.25-2.08,5.8-2,9.92,0,1,0,2,0,3,0,4.52,1.12,8.1,3.25,10.62H3.5a1.68,1.68,0,0,0,0,3.36H9.39a12.15,12.15,0,0,0,23.29.84s.1,0,.16,0H54.3a12.15,12.15,0,0,0,23.34-1.12,1.17,1.17,0,0,0,.32,0c3.8-.19,11.27-3,12.37-12.53a13,13,0,0,0-3.15-10.48C84,51.74,78.71,49.7,72.67,49.7Zm-16-33.94A48.54,48.54,0,0,0,72.05,26,65.57,65.57,0,0,0,56.7,36.32ZM24.52,28.37V10.94c2.9,3.07,7.55,7,12.61,7.56V33a31.27,31.27,0,0,0-12.61,5.49ZM6.18,28.29V23.46l15,1.45v1.93ZM24.55,43.16a1.66,1.66,0,0,0,.35-.67,29.17,29.17,0,0,1,12.41-6.08,1.67,1.67,0,0,0,3.18-.74V12c3,2.75,7.85,6.51,12.85,7.37V33.14c-8.65,1.68-15.47,9-15.77,9.32a1.68,1.68,0,0,0,.1,2.37,1.7,1.7,0,0,0,1.14.44A1.66,1.66,0,0,0,40,44.73c.07-.07,6-6.44,13.3-8.15v3.75A1.68,1.68,0,0,0,55,42a1.65,1.65,0,0,0,1.22-.53c.58-.62,1.18-1.21,1.78-1.79a1.65,1.65,0,0,0,.22.24A26.15,26.15,0,0,1,66,49.7H19.89A31.84,31.84,0,0,1,24.55,43.16ZM21.16,84.31a8.8,8.8,0,1,1,8.8-8.8A8.81,8.81,0,0,1,21.16,84.31Zm44.65,0a8.8,8.8,0,1,1,8.8-8.8A8.81,8.81,0,0,1,65.81,84.31ZM87,65.4c-1,8.41-7.9,9.44-9,9.56a12.16,12.16,0,0,0-24.3.55c0,.18,0,.35,0,.53H33.29c0-.18,0-.35,0-.53A12.16,12.16,0,0,0,9.08,74.14c-2.43-1.85-3.69-5-3.69-9.59,0-1.06,0-2.08,0-3.07-.09-3.36-.17-6.26,1-7.49a4.43,4.43,0,0,1,3.25-.93h28V72.15a1.68,1.68,0,1,0,3.36,0V53.06H72.67c5.09,0,9.46,1.63,12,4.49A9.62,9.62,0,0,1,87,65.4Z" style="" fill="currentColor"></path><path d="M21.16,70.5a5,5,0,1,0,5,5A5,5,0,0,0,21.16,70.5Zm0,6.66a1.65,1.65,0,1,1,1.65-1.65A1.65,1.65,0,0,1,21.16,77.16Z" style="" fill="currentColor"></path><path d="M65.81,70.5a5,5,0,1,0,5,5A5,5,0,0,0,65.81,70.5Zm0,6.66a1.65,1.65,0,1,1,1.66-1.65A1.65,1.65,0,0,1,65.81,77.16Z" style="" fill="currentColor"></path><path d="M56.19,60.06H48.08a1.68,1.68,0,1,0,0,3.36h8.11a1.68,1.68,0,1,0,0-3.36Z" style="" fill="currentColor"></path><path d="M6.38,34.75A1.68,1.68,0,0,0,4.7,36.43v.92a1.68,1.68,0,0,0,3.36,0v-.92A1.68,1.68,0,0,0,6.38,34.75Z" style="" fill="currentColor"></path><path d="M6.38,41A1.68,1.68,0,0,0,4.7,42.67v.92a1.68,1.68,0,0,0,3.36,0v-.92A1.68,1.68,0,0,0,6.38,41Z" style="" fill="currentColor"></path><path d="M9.28,41.65h.92a1.68,1.68,0,1,0,0-3.36H9.28a1.68,1.68,0,0,0,0,3.36Z" style="" fill="currentColor"></path><path d="M3.43,41.65a1.68,1.68,0,0,0,0-3.36H2.52a1.68,1.68,0,0,0,0,3.36Z" style="" fill="currentColor"></path><path d="M76,12.36a1.68,1.68,0,0,0,1.68-1.68V9.76a1.68,1.68,0,0,0-3.36,0v.92A1.68,1.68,0,0,0,76,12.36Z" style="" fill="currentColor"></path><path d="M76,18.6a1.68,1.68,0,0,0,1.68-1.68V16a1.68,1.68,0,0,0-3.36,0v.92A1.68,1.68,0,0,0,76,18.6Z" style="" fill="currentColor"></path><path d="M78.92,15h.92a1.68,1.68,0,0,0,0-3.36h-.92a1.68,1.68,0,0,0,0,3.36Z" style="" fill="currentColor"></path><path d="M73.08,11.61h-.92a1.68,1.68,0,1,0,0,3.36h.92a1.68,1.68,0,1,0,0-3.36Z" style="" fill="currentColor"></path><path d="M82.79,37.71A1.68,1.68,0,0,0,84.47,36v-.92a1.68,1.68,0,1,0-3.36,0V36A1.68,1.68,0,0,0,82.79,37.71Z" style="" fill="currentColor"></path><path d="M82.79,44a1.68,1.68,0,0,0,1.68-1.68v-.92a1.68,1.68,0,1,0-3.36,0v.92A1.68,1.68,0,0,0,82.79,44Z" style="" fill="currentColor"></path><path d="M85.69,40.32h.92a1.68,1.68,0,1,0,0-3.36h-.92a1.68,1.68,0,1,0,0,3.36Z" style="" fill="currentColor"></path><path d="M77.25,38.64a1.68,1.68,0,0,0,1.68,1.68h.91a1.68,1.68,0,0,0,0-3.36h-.91A1.68,1.68,0,0,0,77.25,38.64Z" style="" fill="currentColor"></path><path d="M13.67,9.29a2.11,2.11,0,1,0,2.11,2.11A2.1,2.1,0,0,0,13.67,9.29Z" style="" fill="currentColor"></path></svg>
