<svg xmlns="http://www.w3.org/2000/svg" xmlns:xlink="http://www.w3.org/1999/xlink" version="1.1" x="0px" y="0px" viewBox="0 0 100 100" enable-background="new 0 0 100 100" xml:space="preserve" style="max-width:100%" height="100%"><g style="" fill="currentColor"><path d="M88,21H13c-2.2,0-4,1.8-4,4v51c0,2.2,1.8,4,4,4h75c2.2,0,4-1.8,4-4V25C92,22.8,90.2,21,88,21z M12,33h77v9H12V33z M13,24   h75c0.542,0,1,0.458,1,1v5H12v-5C12,24.458,12.458,24,13,24z M88,77H13c-0.542,0-1-0.458-1-1V45h77v31C89,76.542,88.542,77,88,77z" style="" fill="currentColor"></path><path d="M76.5,55c-2.343,0-4.463,0.948-6,2.48c-1.538-1.532-3.658-2.48-6-2.48c-4.695,0-8.5,3.806-8.5,8.5   c0,4.693,3.805,8.5,8.5,8.5c2.342,0,4.462-0.948,6-2.48c1.537,1.532,3.657,2.48,6,2.48c4.693,0,8.5-3.807,8.5-8.5   C85,58.806,81.193,55,76.5,55z M76.5,69c-1.465,0-2.844-0.57-3.882-1.605c-0.586-0.583-1.352-0.875-2.118-0.875   c-0.766,0-1.532,0.292-2.117,0.875C67.344,68.43,65.964,69,64.5,69c-3.033,0-5.5-2.467-5.5-5.5s2.467-5.5,5.5-5.5   c1.464,0,2.844,0.57,3.883,1.605c0.585,0.584,1.352,0.875,2.117,0.875c0.767,0,1.532-0.292,2.118-0.875   C73.656,58.57,75.035,58,76.5,58c3.033,0,5.5,2.467,5.5,5.5S79.533,69,76.5,69z" style="" fill="currentColor"></path><path d="M42,58H18c-0.828,0-1.5,0.672-1.5,1.5S17.172,61,18,61h24c0.828,0,1.5-0.672,1.5-1.5S42.828,58,42,58z" style="" fill="currentColor"></path><path d="M29.002,65H18c-0.828,0-1.5,0.672-1.5,1.5S17.172,68,18,68h11.002c0.828,0,1.5-0.672,1.5-1.5S29.83,65,29.002,65z" style="" fill="currentColor"></path></g></svg>