<svg xmlns="http://www.w3.org/2000/svg" xmlns:xlink="http://www.w3.org/1999/xlink" version="1.1" x="0px" y="0px" viewBox="0 0 52 52" enable-background="new 0 0 52 52" xml:space="preserve" style="max-width:100%" height="100%"><g style="" fill="currentColor"><g style="" fill="currentColor"><path d="M34.6614189,39.8869629H17.3616123c-1.6542969,0-3-1.3457031-3-3V21.5002441c0-0.5527344,0.4477539-1,1-1h21.2998066    c0.5522461,0,1,0.4472656,1,1v15.3867188C37.6614189,38.5412598,36.3157158,39.8869629,34.6614189,39.8869629z     M16.3616123,22.5002441v14.3867188c0,0.5517578,0.4487305,1,1,1h17.2998066c0.5512695,0,1-0.4482422,1-1V22.5002441H16.3616123z" style="" fill="currentColor"></path></g><g style="" fill="currentColor"><path d="M34.0330009,22.5002441H17.9900303c-0.5522461,0-1-0.4472656-1-1v-4.3652344    c0-4.9746094,4.046875-9.0214844,9.0214844-9.0214844s9.0214863,4.046875,9.0214863,9.0214844v4.3652344    C35.0330009,22.0529785,34.585247,22.5002441,34.0330009,22.5002441z M18.9900303,20.5002441h14.0429707v-3.3652344    c0-3.8720703-3.1499043-7.0214844-7.0214863-7.0214844s-7.0214844,3.1494141-7.0214844,7.0214844V20.5002441z" style="" fill="currentColor"></path></g><g style="" fill="currentColor"><g style="" fill="currentColor"><g style="" fill="currentColor"><path d="M4.958292,36.2687988c-0.3842773,0-0.7509766-0.2226563-0.9160156-0.5976563      C0.0237217,26.5393066,1.9846592,16.0812988,9.0378819,9.029541c9.359375-9.3574219,24.5878925-9.3574219,33.9472656,0      c0.390625,0.390625,0.390625,1.0234375,0,1.4140625s-1.0234375,0.390625-1.4140625,0      c-8.5810547-8.5791016-22.5410175-8.578125-31.1191425,0c-6.465332,6.4648438-8.2626953,16.0507813-4.5786133,24.4228516      c0.222168,0.5048828-0.0073242,1.0947266-0.5126953,1.3173828C5.2297764,36.2414551,5.0930576,36.2687988,4.958292,36.2687988z" style="" fill="currentColor"></path></g><g style="" fill="currentColor"><path d="M26.0115147,49.9885254c-6.1469727,0-12.2939453-2.3388672-16.9736328-7.0175781      c-0.390625-0.390625-0.390625-1.0234375,0-1.4140625s1.0234375-0.390625,1.4140625,0      c8.5791016,8.5761719,22.5390644,8.578125,31.1191425,0c6.6674805-6.6669922,8.3461914-16.8261719,4.1772461-25.28125      c-0.2441406-0.4951172-0.0405273-1.0947266,0.4545898-1.3388672c0.4970703-0.2460938,1.0952148-0.0400391,1.3393555,0.4541016      c4.5478516,9.2236328,2.7167969,20.3076172-4.5571289,27.5800781      C38.3054619,47.6496582,32.1584892,49.9885254,26.0115147,49.9885254z" style="" fill="currentColor"></path></g></g><g style="" fill="currentColor"><path d="M42.2781181,10.7365723h-3.5361328c-0.5522461,0-1-0.4472656-1-1s0.4477539-1,1-1h2.5361328V6.201416     c0-0.5527344,0.4477539-1,1-1s1,0.4472656,1,1v3.5351563C43.2781181,10.2893066,42.8303642,10.7365723,42.2781181,10.7365723z" style="" fill="currentColor"></path></g><g style="" fill="currentColor"><path d="M9.7444248,46.7990723L9.7444248,46.7990723c-0.5522461,0-1-0.4482422-1-1l0.0004883-3.5351563     c0-0.5527344,0.4477539-1,1-1h3.5361328c0.5522461,0,1,0.4472656,1,1s-0.4477539,1-1,1h-2.5361328l-0.0004883,2.5351563     C10.7444248,46.3518066,10.2966709,46.7990723,9.7444248,46.7990723z" style="" fill="currentColor"></path></g></g><g style="" fill="currentColor"><g style="" fill="currentColor"><path d="M26.0115147,32.1125488c-1.6542969,0-3-1.3457031-3-3s1.3457031-3,3-3s3,1.3457031,3,3     S27.6658115,32.1125488,26.0115147,32.1125488z M26.0115147,28.1125488c-0.5512695,0-1,0.4482422-1,1s0.4487305,1,1,1     s1-0.4482422,1-1S26.5627842,28.1125488,26.0115147,28.1125488z" style="" fill="currentColor"></path></g><g style="" fill="currentColor"><path d="M26.0115147,34.8869629c-0.5522461,0-1-0.4472656-1-1v-2.7744141c0-0.5527344,0.4477539-1,1-1s1,0.4472656,1,1v2.7744141     C27.0115147,34.4396973,26.5637608,34.8869629,26.0115147,34.8869629z" style="" fill="currentColor"></path></g></g></g></svg>