<svg xmlns="http://www.w3.org/2000/svg" xmlns:xlink="http://www.w3.org/1999/xlink" version="1.1" viewBox="0 0 112 96" x="0px" y="0px" style="max-width:100%" height="100%"><path d="M22.232 83.064c-6.868 0-13.564-0.42-20.48-1.296-1.004-0.128-1.752-0.98-1.752-1.988v-48.008c0-0.572 0.248-1.12 0.676-1.5s0.996-0.56 1.572-0.484c6.752 0.852 13.3 1.264 20.004 1.264 9.144 0 17.492-0.78 25.564-1.532 8.164-0.768 16.604-1.556 25.94-1.556 6.876 0 13.572 0.424 20.484 1.292 1.012 0.124 1.76 0.976 1.76 1.984v48c0 0.58-0.252 1.12-0.68 1.5-0.428 0.384-1 0.564-1.572 0.484-6.756-0.856-13.304-1.26-20.008-1.26-9.148 0-17.5 0.776-25.572 1.54-8.16 0.76-16.6 1.56-25.936 1.56zM4 78.008c6.132 0.712 12.112 1.056 18.228 1.056 9.148 0 17.5-0.78 25.572-1.54 8.168-0.764 16.604-1.556 25.94-1.556 6.128 0 12.12 0.336 18.252 1.024v-43.976c-6.132-0.708-12.112-1.052-18.24-1.052-9.148 0-17.5 0.78-25.572 1.54-8.164 0.76-16.6 1.552-25.932 1.552-6.116 0-12.108-0.336-18.248-1.028v43.98z" fill="currentColor" style=""></path><path d="M102 74.152c-1.1 0-2-0.896-2-2v-46.232c-17.328-1.992-30.78-0.732-43.8 0.488-13.684 1.28-27.832 2.6-46.448 0.256-1.092-0.14-1.868-1.14-1.736-2.236 0.136-1.092 1.124-1.872 2.236-1.736 18.196 2.296 32.112 0.988 45.58-0.268 13.668-1.28 27.804-2.6 46.424-0.26 1 0.128 1.752 0.976 1.752 1.984v48.004c-0.008 1.104-0.908 2-2.008 2z" fill="currentColor" style=""></path><path d="M110 66.22c-1.1 0-2-0.896-2-2v-46.232c-17.328-1.992-30.78-0.732-43.804 0.484-13.676 1.28-27.828 2.604-46.444 0.256-1.096-0.136-1.876-1.14-1.74-2.236 0.14-1.092 1.12-1.868 2.236-1.736 18.192 2.292 32.108 0.992 45.572-0.268 13.68-1.284 27.812-2.604 46.428-0.264 1.004 0.124 1.752 0.976 1.752 1.984v48c0 1.116-0.9 2.012-2 2.012z" fill="currentColor" style=""></path><path d="M22.232 75.064c-4.156 0-8.208-0.164-12.388-0.5-1.1-0.084-1.92-1.056-1.832-2.156 0.088-1.092 1.040-1.916 2.156-1.828 4.076 0.328 8.024 0.484 12.068 0.484 1.104 0 2 0.904 2 2-0.004 1.1-0.904 2-2.004 2z" fill="currentColor" style=""></path><path d="M86 40.456c-0.056 0-0.1 0-0.164-0.004-4.048-0.328-7.992-0.488-12.080-0.488-1.1 0-2-0.896-2-2s0.9-2 2-2c4.188 0 8.244 0.164 12.4 0.496 1.1 0.092 1.92 1.056 1.836 2.156-0.076 1.044-0.96 1.84-1.992 1.84z" fill="currentColor" style=""></path><path d="M46.168 64.352c-3.868 0-6.572-2.396-6.572-5.812 0-1.1 0.896-2 2-2s2 0.9 2 2c0 1.58 1.612 1.812 2.572 1.812s2.572-0.244 2.572-1.812c0-0.928 0-1.076-2.732-2.416l-1.452-0.724c-2.66-1.316-4.956-2.44-4.956-6 0-3.44 2.704-5.844 6.572-5.844 3.832 0 6.508 2.404 6.508 5.844 0 1.104-0.896 2-2 2s-2-0.896-2-2c0-1.52-1.364-1.844-2.508-1.844-0.96 0-2.572 0.24-2.572 1.844 0 0.928 0 1.068 2.728 2.412l1.456 0.728c2.664 1.312 4.964 2.44 4.964 6-0.004 3.416-2.712 5.812-6.58 5.812z" fill="currentColor" style=""></path><path d="M46 43.964c-0.52 0-1.040-0.196-1.4-0.6-0.4-0.356-0.6-0.876-0.6-1.4 0-0.52 0.2-1.040 0.6-1.4 0.72-0.76 2.040-0.76 2.8 0 0.4 0.36 0.6 0.88 0.6 1.4s-0.2 1.044-0.6 1.4c-0.36 0.404-0.88 0.6-1.4 0.6z" fill="currentColor" style=""></path><path d="M44 41.964h4v4h-4v-4z" fill="currentColor" style=""></path><path d="M46 67.964c-0.52 0-1.040-0.2-1.4-0.596-0.4-0.36-0.6-0.88-0.6-1.404 0-0.52 0.2-1.044 0.6-1.404 0.72-0.756 2.080-0.756 2.8 0 0.4 0.36 0.6 0.884 0.6 1.404s-0.2 1.044-0.6 1.404c-0.36 0.396-0.88 0.596-1.4 0.596z" fill="currentColor" style=""></path><path d="M44 61.964h4v4h-4v-4z" fill="currentColor" style=""></path></svg>